Coordinates
version=1
nRows=14
nColumns=40
inDegrees=yes

Units are S.I. units (second, meters, Newtons, ...)
Angles are in degrees.

endheader
time	pelvis_tilt	pelvis_list	pelvis_rotation	pelvis_tx	pelvis_ty	pelvis_tz	hip_flexion_r	hip_adduction_r	hip_rotation_r	knee_angle_r	knee_angle_r_beta	ankle_angle_r	subtalar_angle_r	mtp_angle_r	hip_flexion_l	hip_adduction_l	hip_rotation_l	knee_angle_l	knee_angle_l_beta	ankle_angle_l	subtalar_angle_l	mtp_angle_l	lumbar_extension	lumbar_bending	lumbar_rotation	arm_flex_r	arm_add_r	arm_rot_r	elbow_flex_r	pro_sup_r	wrist_flex_r	wrist_dev_r	arm_flex_l	arm_add_l	arm_rot_l	elbow_flex_l	pro_sup_l	wrist_flex_l	wrist_dev_l
     52.54750000	     -3.51772811	     -3.73790066	    -12.48536033	      0.94182918	      0.92848354	      0.49277900	     18.11631555	      3.31466402	     -7.79223208	     18.41953547	     18.41953547	      6.38449566	      5.81431785	     -6.27619061	      3.09176108	     -8.78587599	    -15.17793945	     35.69873657	     35.69873657	     15.14468479	    -17.64135867	      1.85693896	    -10.16133258	      9.85626389	      0.96981359	    -10.43430201	    -14.22663521	    -26.10179906	     28.71152285	     46.58842712	      0.00000000	      0.00000000	     30.36342718	    -19.87620129	    -11.35159840	     77.59091018	     48.50227952	      0.00000000	      0.00000000
     52.56742857	     -3.36483007	     -3.85033320	    -11.86256298	      0.94257399	      0.92924676	      0.49695130	     17.31650174	      3.51682551	     -8.18604960	     18.26503500	     18.26503500	      6.91211183	      5.63295965	     -6.23630201	      4.65739449	     -9.78080101	    -14.35802151	     39.44681675	     39.44681675	     13.55121327	    -18.18963207	      1.73719509	    -10.18154913	      9.86977144	      1.06046446	     -9.72692980	    -14.58592522	    -26.00961632	     29.02374763	     46.57535004	      0.00000000	      0.00000000	     29.34638850	    -19.40784365	    -10.88654180	     77.44429445	     48.45854506	      0.00000000	      0.00000000
     52.58735714	     -3.24504665	     -3.93849991	    -11.21568216	      0.94300300	      0.92973816	      0.50088374	     16.64835991	      3.75246436	     -8.30305775	     18.22353842	     18.22353842	      7.53540162	      4.94329961	     -5.73473415	      6.56343392	    -10.64186741	    -13.18837523	     43.53757426	     43.53757426	     12.94970817	    -18.48427006	      4.64577524	    -10.15344595	      9.81371051	      0.80654780	     -8.68100615	    -15.08462467	    -24.75873115	     29.12744949	     46.49106822	      0.00000000	      0.00000000	     27.68491435	    -19.47758477	     -9.95839767	     77.83406713	     48.36113901	      0.00000000	      0.00000000
     52.60728571	     -2.99897910	     -4.13643522	    -10.50780579	      0.94330356	      0.93012599	      0.50465795	     15.85401603	      4.04998546	     -8.61480510	     18.20156875	     18.20156875	      7.98140478	      4.40864709	     -5.81015649	      8.26454957	    -11.56868757	    -12.06098843	     47.24486279	     47.24486279	     11.38408316	    -18.87575681	      5.11962662	    -10.28721232	      9.84239006	      0.91768976	     -7.77302529	    -15.40564465	    -24.64629483	     29.42021197	     46.47947042	      0.00000000	      0.00000000	     26.54323426	    -18.77618471	     -9.51099852	     77.32210186	     48.31114829	      0.00000000	      0.00000000
     52.62721429	     -2.83468299	     -4.23240262	     -9.76925841	      0.94324636	      0.93023413	      0.50816287	     15.26910266	      4.36016313	     -8.39079670	     18.27430536	     18.27430536	      8.27147713	      2.85234230	     -6.00342760	     10.42268272	    -12.12126672	    -10.43409867	     51.25721699	     51.25721699	     12.04825862	    -18.97817737	     11.68329032	    -10.28707861	      9.72569033	      0.73745257	     -6.42099302	    -15.81354067	    -23.48403516	     29.14063175	     46.42669094	      0.00000000	      0.00000000	     25.03489923	    -18.47583780	     -8.52721975	     76.51374792	     48.19425915	      0.00000000	      0.00000000
     52.64714286	     -2.58338637	     -4.42955387	     -8.97006775	      0.94309698	      0.93021382	      0.51156985	     14.66672575	      4.74261461	     -8.28820051	     18.50460908	     18.50460908	      8.66211697	      1.37092968	     -5.94988204	     12.24647147	    -12.78707530	     -9.06456695	     54.50607102	     54.50607102	     11.16440575	    -19.19113027	     13.38274521	    -10.38877335	      9.69493491	      0.54384965	     -5.09486940	    -16.02227415	    -23.15151010	     29.50157553	     46.40145159	      0.00000000	      0.00000000	     23.52847712	    -17.94055352	     -7.79488538	     75.32894917	     48.10629804	      0.00000000	      0.00000000
     52.66707143	     -2.34927556	     -4.62383936	     -8.14332723	      0.94273958	      0.92997216	      0.51475542	     14.11589880	      5.12293963	     -8.22803349	     18.75125529	     18.75125529	      9.05535868	     -0.07480226	     -5.88401940	     14.20753153	    -13.27848818	     -7.56596288	     57.58295092	     57.58295092	     11.50972465	    -19.31164820	     17.52110383	    -10.47331847	      9.58396863	      0.60219770	     -3.78338678	    -16.28021880	    -22.24136792	     29.45532275	     46.35783491	      0.00000000	      0.00000000	     22.14800581	    -17.23513860	     -6.62608832	     73.71919504	     47.97505727	      0.00000000	      0.00000000
     52.68700000	     -2.03965288	     -4.88887015	     -7.26540994	      0.94229148	      0.92964442	      0.51776875	     13.55720770	      5.49411234	     -8.53567681	     19.13903600	     19.13903600	      9.51104905	     -1.01399031	     -5.91948315	     15.88275859	    -13.84361993	     -6.30715525	     59.93431837	     59.93431837	     10.95088955	    -19.43507816	     17.88930630	    -10.68654618	      9.53660000	      0.52352495	     -2.37780435	    -16.36128673	    -22.09745796	     30.03621807	     46.33542426	      0.00000000	      0.00000000	     20.44929702	    -16.38417674	     -5.93901354	     72.40147908	     47.89223430	      0.00000000	      0.00000000
     52.70692857	     -1.83428996	     -5.12195922	     -6.37317991	      0.94159538	      0.92901079	      0.52064859	     13.21281469	      5.90150474	     -8.59452325	     19.63185105	     19.63185105	      9.96119761	     -2.47288532	     -5.78652136	     17.70315891	    -14.28510448	     -5.06925585	     61.90491088	     61.90491088	     11.01243491	    -19.51249628	     18.83736887	    -10.73344522	      9.44974177	      0.15109708	     -0.65338572	    -16.31334928	    -21.82033657	     30.74137811	     46.30078089	      0.00000000	      0.00000000	     18.64549723	    -15.80876717	     -5.09102124	     70.17083924	     47.78246033	      0.00000000	      0.00000000
     52.72685714	     -1.51358452	     -5.23851155	     -5.52455640	      0.94072435	      0.92861775	      0.52340718	     12.81404763	      6.25318839	     -8.25921371	     20.19225644	     20.19225644	     10.47220313	     -4.41219674	     -5.02043318	     19.35124674	    -14.44115217	     -3.92879192	     63.38377376	     63.38377376	     12.23487936	    -19.56739171	     22.15366161	    -10.88560988	      9.16572172	      0.19638994	      1.03224135	    -16.33472466	    -20.62455645	     31.13799675	     46.22088132	      0.00000000	      0.00000000	     17.71126842	    -14.95984150	     -3.52911300	     65.72542144	     47.59328599	      0.00000000	      0.00000000
     52.74678571	     -1.34366183	     -5.47794506	     -4.63774353	      0.93971823	      0.92769616	      0.52592664	     12.58789746	      6.58349501	     -8.72750759	     20.77693734	     20.77693734	     11.00581363	     -5.16273438	     -4.97231793	     21.08934217	    -14.78434346	     -2.99705672	     64.32903817	     64.32903817	     12.79879705	    -19.60641353	     22.44604210	    -10.94376365	      9.03934313	     -0.11561531	      2.89950680	    -16.16661616	    -20.28056455	     32.20624651	     46.16806725	      0.00000000	      0.00000000	     15.78909248	    -14.26922864	     -2.66940641	     63.21083697	     47.47800485	      0.00000000	      0.00000000
     52.76671429	     -1.06303620	     -5.61903472	     -3.86149959	      0.93856614	      0.92707847	      0.52830476	     12.34634533	      6.80626293	     -9.04277023	     21.56050216	     21.56050216	     12.01901943	     -5.76474092	     -3.42529338	     22.54062799	    -14.94996571	     -2.31845753	     64.66043491	     64.66043491	     13.89751880	    -19.63190004	     23.77946831	    -11.13301728	      8.80627048	      0.53755889	      3.65924515	    -16.53893338	    -17.51765260	     34.81010276	     45.91385005	      0.00000000	      0.00000000	     15.50684130	    -13.15339280	     -0.30520515	     57.12814379	     47.22849999	      0.00000000	      0.00000000
     52.78664286	     -0.87454822	     -5.74369464	     -3.07485811	      0.93724822	      0.92613075	      0.53052198	     12.15308273	      7.01241467	     -9.42909327	     22.16167627	     22.16167627	     12.49438413	     -6.49386416	     -3.43401323	     24.02139781	    -15.07555212	     -1.77907698	     64.50832884	     64.50832884	     14.68297483	    -19.64827915	     23.85516537	    -11.25406617	      8.51569160	     -0.00899390	      6.10285190	    -16.10781820	    -17.23717694	     36.15408098	     45.86141946	      0.00000000	      0.00000000	     13.33953347	    -12.63173032	      0.34776126	     54.13739862	     47.12087981	      0.00000000	      0.00000000
     52.80657143	     -0.68334235	     -5.85064986	     -2.39373385	      0.93581986	      0.92526953	      0.53258841	     11.96153874	      7.18344269	     -9.82096654	     22.78442238	     22.78442238	     13.23048852	     -6.88628578	     -2.73751920	     25.34152567	    -15.16347979	     -1.45835786	     63.84307103	     63.84307103	     15.54639391	    -19.65042641	     24.28895471	    -11.36371994	      8.24386443	      0.38260280	      8.02659286	    -16.22294653	    -15.64447800	     37.50795930	     45.74137478	      0.00000000	      0.00000000	     12.82889501	    -11.38358028	      1.35337166	     47.63721712	     46.96669852	      0.00000000	      0.00000000
